<svg width="254" height="183" viewBox="0 0 254 183" fill="none" xmlns="http://www.w3.org/2000/svg">
<g clip-path="url(#clip0_3_2539)">
<path d="M37.8107 84.7228L21.8396 130.935L90.074 154.744L106.045 108.531L37.8107 84.7228Z" fill="#EBEBEB"/>
<path d="M106.04 108.525C105.772 108.683 105.488 108.814 105.194 108.917L102.717 109.928L93.5521 113.548L63.1554 125.237L62.9072 125.33L62.761 125.103L62.4153 124.551L44.897 96.4711L39.6544 87.9216C39.0635 86.9479 38.5967 86.1672 38.254 85.5794C38.0819 85.3125 37.9336 85.0309 37.8108 84.7378C38.0192 84.9727 38.2061 85.2261 38.3692 85.4948L39.8848 87.7658L45.3047 96.2262L62.9826 124.204L63.3327 124.756L62.9382 124.622L93.3881 113.103L102.628 109.696L105.145 108.806C105.434 108.683 105.734 108.589 106.04 108.525Z" fill="#E0E0E0"/>
<path d="M21.8347 130.914C21.7461 130.758 29.0627 126.212 38.1831 120.766C47.3034 115.32 54.7752 111.023 54.8682 111.184C54.9613 111.344 47.6446 115.881 38.5199 121.332C29.3951 126.782 21.9278 131.088 21.8347 130.914Z" fill="#E0E0E0"/>
<path d="M77.7534 118.535C77.9218 118.478 80.8201 126.551 84.2236 136.53C87.6271 146.508 90.2418 154.679 90.0734 154.737C89.905 154.795 87.0022 146.744 83.6032 136.743C80.2041 126.742 77.5805 118.593 77.7534 118.535Z" fill="#E0E0E0"/>
<path d="M239.166 72.7021L171.647 84.2012L179.361 129.93L246.88 118.431L239.166 72.7021Z" fill="#E0E0E0"/>
<path d="M239.163 72.7197C239.011 72.9746 238.836 73.2146 238.64 73.4366C238.232 73.9309 237.7 74.5899 237.036 75.4093L231.057 82.6051L211.115 106.25L210.951 106.446L210.729 106.321L210.189 106.023L182.881 90.7138L174.607 86.0116L172.391 84.7069C172.123 84.5701 171.87 84.4044 171.638 84.2126C171.919 84.3176 172.192 84.4457 172.453 84.5956L174.735 85.7978L183.071 90.3264L210.468 105.466L211.008 105.765L210.618 105.836L230.716 82.3112L236.854 75.2534L238.542 73.352C238.73 73.1232 238.938 72.9116 239.163 72.7197Z" fill="#EBEBEB"/>
<path d="M179.358 129.944C179.207 129.855 183.231 122.721 188.337 114.012C193.442 105.302 197.701 98.3107 197.851 98.3998C198.002 98.4888 193.978 105.618 188.873 114.332C183.768 123.046 179.504 130.024 179.358 129.944Z" fill="#EBEBEB"/>
<path d="M220.196 94.0046C220.311 93.8799 226.378 99.2456 233.743 105.996C241.109 112.747 246.99 118.317 246.874 118.464C246.759 118.611 240.697 113.223 233.327 106.473C225.957 99.7221 220.081 94.1337 220.196 94.0046Z" fill="#EBEBEB"/>
<path d="M172.493 0.129884L160.197 31.1846L206.052 49.5154L218.348 18.4607L172.493 0.129884Z" fill="#EBEBEB"/>
<path d="M217.55 18.5591C217.363 18.6624 217.165 18.7445 216.96 18.804L215.241 19.4275L208.895 21.6272L187.84 28.7518L187.667 28.8097L187.574 28.6494C187.508 28.5291 187.432 28.3955 187.353 28.2664C183.001 20.6119 179.061 13.6877 176.176 8.62476L172.835 2.67126L171.948 1.03706C171.835 0.849047 171.74 0.650758 171.665 0.444824C171.801 0.612417 171.921 0.792851 172.024 0.983623L172.985 2.57775C173.832 4.00713 175.006 6.01092 176.451 8.46001L187.743 28.0527L187.964 28.4401L187.698 28.3377L208.793 21.3377L215.188 19.2716L216.934 18.7016C217.135 18.638 217.341 18.5904 217.55 18.5591Z" fill="#E0E0E0"/>
<path d="M159.499 31.5082C159.442 31.4014 164.56 28.5025 170.929 25.0382C177.297 21.5739 182.513 18.8576 182.584 18.9645C182.655 19.0713 177.523 21.9702 171.15 25.4345C164.777 28.8988 159.561 31.6151 159.499 31.5082Z" fill="#E0E0E0"/>
<path d="M197.98 24.6017C198.099 24.5661 199.854 30.1456 201.897 37.0698C203.94 43.994 205.505 49.618 205.39 49.6536C205.274 49.6893 203.515 44.1143 201.468 37.1856C199.42 30.2569 197.86 24.6374 197.98 24.6017Z" fill="#E0E0E0"/>
<path d="M254 182.644C254 182.706 197.138 182.759 127.007 182.759C56.8759 182.759 0.00012207 182.706 0.00012207 182.644C0.00012207 182.581 56.8537 182.528 127.007 182.528C197.16 182.528 254 182.568 254 182.644Z" fill="#263238"/>
<path d="M12.5328 61.2489L18.8789 58.9913L16.1534 55.3355C16.0158 54.5281 15.9506 53.7099 15.9584 52.8908C15.9577 52.469 16.0297 52.0501 16.1712 51.6529C16.3259 51.1513 16.5512 50.6744 16.8403 50.2369C16.9108 50.1623 16.9559 50.067 16.969 49.965C16.9821 49.8629 16.9626 49.7593 16.9133 49.6691C16.864 49.5789 16.7874 49.5068 16.6946 49.4632C16.6019 49.4196 16.4977 49.4067 16.3972 49.4265C15.9762 49.5378 15.1209 50.5531 14.7442 52.0581C14.3675 53.5632 13.3393 51.3457 12.9494 50.5486C12.5594 49.7515 11.2476 47.3292 10.9064 47.2535C10.41 47.1422 10.2017 47.6587 10.605 48.4469C11.0083 49.235 12.063 51.693 11.6332 51.88C11.2033 52.067 9.28881 47.9615 9.28881 47.9615C9.28881 47.9615 9.01848 47.0175 8.5177 47.2179C7.60478 47.5741 9.96685 51.7821 10.2017 52.1739C10.3657 52.45 9.90481 52.6682 9.75856 52.3654C9.61232 52.0626 7.93716 48.2287 7.00651 48.5849C6.29302 48.8565 8.91655 52.0626 8.82349 53.0378C8.73042 54.013 7.07742 50.4061 6.40824 50.6911C6.16007 50.798 5.98723 50.9137 7.23252 52.8552C7.85327 53.7635 8.52039 54.6389 9.2312 55.478L12.5416 61.24" fill="#FFBE9D"/>
<path d="M69.5773 69.019C69.5773 69.019 66.4486 61.6807 64.2904 58.1139C62.2562 54.7565 59.5618 54.2132 58.1259 54.1063C57.5305 53.9228 56.9192 53.7961 56.3001 53.7278L44.5562 53.6299C41.9944 53.654 39.5194 54.5663 37.5498 56.2126C37.0091 56.6578 32.9497 61.3823 27.5697 68.1195L18.1702 57.9091L12.5553 61.2488C12.5553 61.2488 18.6532 82.4044 26.2934 80.9528C30.827 80.0889 34.3723 76.9184 34.3723 76.9184L40.3284 72.0915L40.4703 72.893C40.5899 73.8682 40.9134 75.4445 41.1173 76.3975C41.8396 79.421 42.2385 83.4018 40.6741 86.0379C40.6741 86.0379 38.5513 87.6721 40.2309 89.4667H62.3183C62.3183 89.4667 65.4515 87.3337 62.5931 84.9648L60.8204 80.4585L61.9771 74.9681L62.4202 72.7684L64.3613 76.1125C64.3613 76.1125 68.2124 80.9795 72.2142 80.3828C77.0225 79.6614 79.81 70.8581 75.467 59.2182L70.2376 60.8168L69.5773 69.019Z" fill="#E8505B"/>
<g opacity="0.4">
<path opacity="0.4" d="M12.5327 61.2488L13.0866 63.0122L19.3219 59.1872L18.1476 57.9092L12.5327 61.2488Z" fill="black"/>
</g>
<g opacity="0.2">
<path opacity="0.2" d="M40.6827 86.038C41.6111 85.8978 42.5017 85.5708 43.3013 85.0765C44.1008 84.5822 44.7929 83.9309 45.3359 83.1614C46.4802 81.5934 46.9584 79.6331 46.6654 77.7111C46.6405 77.3731 46.5456 77.0441 46.3869 76.7451C46.2282 76.4461 46.0091 76.1836 45.7436 75.9745C45.0434 75.5292 44.0951 75.7608 43.3683 75.3734C42.7789 75.0572 42.482 74.4071 42.0388 73.8727C41.5956 73.3384 41.055 72.5102 40.439 72.7773C40.439 72.7773 41.1835 76.6959 41.507 78.4414C41.8305 80.1869 41.9502 82.6939 41.3253 84.524C41.1646 85.0499 40.9492 85.5574 40.6827 86.038Z" fill="black"/>
</g>
<path d="M26.6785 71.7491C26.6822 71.1217 26.7933 70.4997 27.0068 69.9101C27.1425 69.3015 27.3295 68.7056 27.5659 68.1289C27.5649 68.7565 27.4537 69.379 27.2375 69.9679C27.1019 70.5765 26.9149 71.1724 26.6785 71.7491Z" fill="#263238"/>
<path d="M28.0751 70.7737C27.8758 70.3666 27.7467 69.9284 27.6936 69.478C27.5663 69.0449 27.5167 68.5926 27.5471 68.1421C27.879 68.9835 28.0578 69.8779 28.0751 70.7827V70.7737Z" fill="#263238"/>
<path d="M70.2016 44.8535L62.1848 57.9094L68.4954 59.6727L75.4974 48.8255L70.2016 44.8535Z" fill="#455A64"/>
<path d="M69.701 55.9767L69.9758 57.8869L71.097 59.3341L71.2078 60.5186L75.2317 59.2896L73.6053 53.5009C73.7357 52.7214 73.7877 51.9307 73.7604 51.1408L72.6791 52.6325L72.3733 50.228L70.1043 48.3979C70.0459 48.3546 69.9796 48.3234 69.9092 48.306C69.8387 48.2886 69.7655 48.2854 69.6938 48.2966C69.6221 48.3077 69.5534 48.3331 69.4915 48.3711C69.4296 48.4091 69.3758 48.4591 69.3332 48.5181C69.2551 48.6244 69.2179 48.7556 69.2285 48.8874C69.2391 49.0191 69.2967 49.1426 69.3908 49.235L71.2122 50.8469L71.3275 52.8374L69.998 51.6084C69.8752 51.4886 69.7218 51.4054 69.5548 51.3679L67.7245 50.9983C67.6576 50.9855 67.5887 50.9873 67.5224 51.0034C67.4562 51.0195 67.3942 51.0497 67.3405 51.0918C67.2868 51.134 67.2426 51.1872 67.211 51.2478C67.1795 51.3085 67.1611 51.3753 67.1573 51.4436C67.1452 51.5539 67.1718 51.6649 67.2325 51.7576C67.2931 51.8503 67.3841 51.9187 67.4896 51.9513L69.1515 52.4633L70.8355 54.1732L69.1914 53.5409L66.9756 53.8571C66.8707 53.8742 66.7754 53.9285 66.7071 54.0102C66.6388 54.092 66.6019 54.1956 66.6033 54.3024C66.6033 54.4205 66.65 54.5337 66.7331 54.6172C66.8162 54.7007 66.9289 54.7477 67.0465 54.7477L68.469 54.6675L69.3066 54.9302L67.3611 55.3978C67.275 55.4203 67.1992 55.472 67.1467 55.5443C67.0942 55.6165 67.0682 55.7048 67.0731 55.7941C67.0764 55.8462 67.09 55.8971 67.113 55.9439C67.136 55.9907 67.168 56.0324 67.2071 56.0668C67.2463 56.1011 67.2917 56.1274 67.341 56.144C67.3902 56.1606 67.4423 56.1673 67.4941 56.1637L69.701 55.9767Z" fill="#FFBE9D"/>
<g opacity="0.4">
<path opacity="0.4" d="M70.2284 60.8173L70.06 62.9547L76.1579 61.2671L75.4577 59.2188L70.2284 60.8173Z" fill="black"/>
</g>
<path d="M62.185 57.9093C62.185 57.9093 61.6444 57.1746 61.6887 57.0499C61.733 56.9252 69.32 44.3726 69.32 44.3726L70.2063 44.8535L62.185 57.9093Z" fill="#263238"/>
<path d="M72.2362 48.1352C72.2714 48.1086 72.3122 48.0903 72.3554 48.0818C72.3986 48.0732 72.4432 48.0745 72.4859 48.0856C72.5285 48.0968 72.5681 48.1174 72.6017 48.146C72.6353 48.1746 72.662 48.2105 72.6799 48.2509C72.6893 48.297 72.6876 48.3446 72.6752 48.39C72.6627 48.4353 72.6398 48.477 72.6082 48.5117C72.5766 48.5465 72.5373 48.5732 72.4935 48.5898C72.4497 48.6064 72.4026 48.6123 72.356 48.6072C72.3124 48.5935 72.2726 48.5698 72.2397 48.538C72.2069 48.5061 72.1819 48.467 72.1668 48.4237C72.1517 48.3804 72.1469 48.3342 72.1528 48.2888C72.1587 48.2433 72.1751 48.1998 72.2007 48.1619" fill="#263238"/>
<path d="M67.1886 64.2458C67.132 64.3646 67.0539 64.4718 66.9582 64.5619C66.6818 64.8214 66.34 65 65.9699 65.0784C65.3851 65.1984 64.7821 65.1984 64.1973 65.0784C63.4526 64.9009 62.6813 64.8662 61.9238 64.976C61.0355 65.2361 60.2163 65.6925 59.5263 66.3119C58.733 66.9219 57.8955 67.6789 56.7698 68.0352C56.1939 68.1991 55.5913 68.246 54.9971 68.1732C54.3888 68.0798 53.7937 67.9139 53.2245 67.6789C52.0634 67.2336 50.9466 66.5746 49.7279 66.1293C48.5492 65.6675 47.2584 65.5774 46.0275 65.8711C44.8265 66.1204 43.7009 66.539 42.5797 66.7616C40.5698 67.199 38.4707 66.9072 36.6546 65.9379C35.4275 65.3022 34.3653 64.3873 33.5524 63.2661C33.2543 62.8628 33.0058 62.4247 32.8123 61.9614C32.8433 61.9614 33.0561 62.4423 33.6277 63.2127C34.4582 64.2896 35.5182 65.166 36.7299 65.7775C38.5162 66.7168 40.5741 66.9958 42.5442 66.5657C43.6477 66.3253 44.76 65.9022 45.992 65.644C47.2652 65.3373 48.6012 65.429 49.821 65.9067C51.0707 66.352 52.1875 67.011 53.3264 67.4652C53.8788 67.6936 54.4559 67.8565 55.0459 67.9506C55.6085 68.0195 56.1791 67.9772 56.7255 67.8259C57.7935 67.4964 58.6222 66.7661 59.4244 66.156C60.1419 65.5276 60.9919 65.0708 61.9105 64.8202C62.6888 64.7134 63.4804 64.7588 64.2416 64.9538C64.8062 65.0825 65.3906 65.0976 65.961 64.9983C66.3179 64.9382 66.6527 64.7846 66.9316 64.553C67.1088 64.3571 67.1798 64.2413 67.1886 64.2458Z" fill="#FAFAFA"/>
<path d="M69.697 72.7286C69.5606 72.0804 69.5011 71.4183 69.5195 70.756C69.4583 70.0941 69.4777 69.4272 69.5772 68.77C69.7158 69.4195 69.7769 70.0832 69.7591 70.7471C69.8176 71.4077 69.7968 72.073 69.697 72.7286Z" fill="#263238"/>
<path d="M55.8745 154.604C56.0695 155.378 60.5898 180.844 60.5898 180.844L67.512 180.341L66.249 154.336L55.8745 154.604Z" fill="#FFBE9D"/>
<path d="M67.7247 180.724V179.994L60.346 180.15L60.3903 182.563H60.8335C62.8632 182.63 71.1548 182.768 72.502 182.359C74.0088 181.922 67.7247 180.724 67.7247 180.724Z" fill="#E8505B"/>
<g opacity="0.3">
<path opacity="0.3" d="M63.0313 182.456C62.8999 181.869 62.5514 181.353 62.0563 181.014C61.5531 180.658 60.941 180.492 60.328 180.546L60.3723 182.465L63.0313 182.456Z" fill="black"/>
</g>
<g opacity="0.3">
<path opacity="0.3" d="M70.7914 181.41C70.7914 181.41 73.0072 181.962 72.728 182.301C72.4488 182.639 64.073 182.799 60.3682 182.563V182.408L70.1532 182.31C70.1532 182.31 70.3615 181.437 70.7914 181.41Z" fill="black"/>
</g>
<path d="M60.2709 182.408H60.395H60.7584L62.0879 182.439C63.2135 182.439 64.7734 182.461 66.5195 182.439C68.2656 182.417 69.7989 182.35 70.9246 182.292L72.2541 182.216L72.6175 182.189H72.746H72.6175H72.2541L70.9246 182.238C69.7945 182.279 68.239 182.327 66.4929 182.359C64.7468 182.39 63.2135 182.394 62.0879 182.394H60.3861L60.2709 182.408Z" fill="#263238"/>
<path d="M70.1623 182.417C70.2145 182.207 70.2935 182.005 70.3974 181.815C70.5267 181.637 70.6755 181.475 70.8411 181.33C70.6192 181.409 70.4343 181.568 70.322 181.775C70.1888 181.961 70.1316 182.19 70.1623 182.417Z" fill="#263238"/>
<path d="M67.973 181.428C67.973 181.428 68.0928 181.321 68.1949 181.161C68.2969 181.001 68.3679 180.863 68.3457 180.849C68.3235 180.836 68.2259 180.956 68.1195 181.116C68.013 181.277 67.9509 181.415 67.973 181.428Z" fill="#263238"/>
<path d="M67.3613 181.143C67.3613 181.143 67.49 181.085 67.6142 180.978C67.7384 180.871 67.8272 180.769 67.8094 180.751C67.7917 180.733 67.6808 180.809 67.5565 180.916C67.4323 181.023 67.3613 181.125 67.3613 181.143Z" fill="#263238"/>
<path d="M66.98 180.501C67.1031 180.541 67.233 180.554 67.3615 180.542C67.4919 180.554 67.6235 180.539 67.7475 180.497C67.6229 180.458 67.4916 180.444 67.3615 180.457C67.2327 180.446 67.103 180.461 66.98 180.501Z" fill="#263238"/>
<path d="M66.838 180.048C66.9751 180.115 67.1245 180.154 67.277 180.162C67.4296 180.17 67.5821 180.146 67.7253 180.092C67.5776 180.081 67.4293 180.081 67.2816 180.092C67.1354 180.064 66.9869 180.049 66.838 180.048Z" fill="#263238"/>
<path d="M68.2079 180.822C68.3635 180.847 68.522 180.847 68.6776 180.822C68.8477 180.799 69.0153 180.76 69.1784 180.706C69.2777 180.681 69.373 180.642 69.462 180.591C69.4896 180.577 69.514 180.557 69.5339 180.533C69.5537 180.51 69.5685 180.482 69.5773 180.453C69.5834 180.419 69.5795 180.385 69.5661 180.354C69.5526 180.323 69.5303 180.297 69.5019 180.279C69.3219 180.196 69.1193 180.175 68.9266 180.221C68.7338 180.267 68.5619 180.377 68.4383 180.533C68.368 180.62 68.3167 180.722 68.2877 180.831C68.2799 180.871 68.2799 180.912 68.2877 180.951C68.3353 180.814 68.4057 180.686 68.4959 180.573C68.6024 180.452 68.7407 180.364 68.8948 180.319C69.079 180.256 69.2801 180.266 69.4576 180.346C69.533 180.395 69.5064 180.479 69.4222 180.524C69.3391 180.57 69.2515 180.607 69.1607 180.635C69.0032 180.69 68.8417 180.733 68.6776 180.764C68.3852 180.786 68.2079 180.809 68.2079 180.822Z" fill="#263238"/>
<path d="M68.3282 180.845C68.3563 180.799 68.3751 180.749 68.3835 180.696C68.3919 180.643 68.3897 180.589 68.377 180.537C68.3605 180.42 68.313 180.309 68.2395 180.217C68.1971 180.15 68.1388 180.095 68.0698 180.057C68.0008 180.019 67.9234 179.999 67.8446 179.999C67.8217 180.002 67.7998 180.011 67.7802 180.023C67.7606 180.035 67.7436 180.052 67.7304 180.071C67.7171 180.09 67.7079 180.111 67.7031 180.134C67.6983 180.157 67.6982 180.181 67.7026 180.203C67.7145 180.275 67.7434 180.342 67.7869 180.399C67.8511 180.497 67.9288 180.586 68.0176 180.662C68.0925 180.741 68.1854 180.801 68.2883 180.836C68.2883 180.836 68.1951 180.76 68.062 180.622C67.9833 180.543 67.9148 180.455 67.8579 180.359C67.7914 180.27 67.7426 180.101 67.8579 180.079C67.9203 180.085 67.9806 180.105 68.0349 180.136C68.0892 180.168 68.1363 180.21 68.1729 180.261C68.2407 180.344 68.2879 180.442 68.3105 180.546C68.328 180.645 68.334 180.745 68.3282 180.845Z" fill="#263238"/>
<path d="M60.3682 180.528C60.5483 180.519 60.7287 180.519 60.9088 180.528C61.3393 180.57 61.7515 180.724 62.1054 180.973C62.4443 181.216 62.7084 181.549 62.8676 181.935C62.9873 182.229 63.0006 182.425 63.0183 182.425C63.025 182.379 63.025 182.333 63.0183 182.287C63.003 182.161 62.9733 182.037 62.9297 181.917C62.7823 181.51 62.5148 181.158 62.163 180.907C61.7998 180.643 61.3694 180.489 60.9221 180.461C60.7865 180.448 60.65 180.448 60.5144 180.461C60.4169 180.506 60.3682 180.519 60.3682 180.528Z" fill="#263238"/>
<path d="M63.9401 181.771C64.2928 181.843 64.6532 181.87 65.0126 181.851C65.3727 181.862 65.7328 181.829 66.085 181.753C66.085 181.726 65.6064 181.753 65.0126 181.753C64.4187 181.753 63.9401 181.749 63.9401 181.771Z" fill="#263238"/>
<path d="M62.4863 181.797C62.4863 181.797 62.5264 181.891 62.5798 181.993C62.6333 182.096 62.66 182.185 62.6867 182.185C62.7134 182.185 62.7223 182.074 62.66 181.958C62.5976 181.842 62.513 181.78 62.4863 181.797Z" fill="#263238"/>
<path d="M61.9413 181.174C61.9413 181.174 61.9724 181.263 62.0523 181.334C62.1321 181.405 62.2075 181.45 62.2253 181.432C62.243 181.414 62.1898 181.343 62.1144 181.272C62.039 181.201 61.9591 181.161 61.9413 181.174Z" fill="#263238"/>
<path d="M61.157 180.903C61.157 180.925 61.2591 180.903 61.3656 180.956C61.472 181.01 61.5563 181.041 61.5741 181.027C61.5918 181.014 61.5297 180.916 61.3922 180.876C61.2546 180.836 61.157 180.88 61.157 180.903Z" fill="#263238"/>
<path d="M60.6028 180.786C60.6028 180.786 60.6384 180.84 60.7007 180.862C60.7631 180.884 60.821 180.862 60.8254 180.862C60.8299 180.862 60.7943 180.804 60.7319 180.782C60.6696 180.76 60.6117 180.755 60.6028 180.786Z" fill="#263238"/>
<path d="M38.2582 152.479C38.2227 153.272 35.3422 178.075 35.3422 178.075L42.1226 179.584L48.3756 154.319L38.2582 152.479Z" fill="#FFBE9D"/>
<path d="M42.4288 180.243L42.5839 179.531L35.3781 177.915L34.8507 180.27L35.2939 180.395C37.2482 180.947 45.2695 183.067 46.6744 182.991C48.2387 182.906 42.4288 180.243 42.4288 180.243Z" fill="#E8505B"/>
<g opacity="0.3">
<path opacity="0.3" d="M37.4606 180.787C37.4732 180.185 37.2578 179.601 36.8579 179.152C36.4528 178.687 35.8973 178.379 35.2891 178.284L34.877 180.159L37.4606 180.787Z" fill="black"/>
</g>
<g opacity="0.3">
<path opacity="0.3" d="M45.2474 181.646C45.2474 181.646 47.2549 182.706 46.9137 182.982C46.5724 183.258 38.3916 181.392 34.8507 180.279L34.895 180.132L44.4231 182.358C44.4231 182.358 44.8264 181.566 45.2474 181.646Z" fill="black"/>
</g>
<path d="M34.7843 180.092C34.7843 180.092 34.8242 180.092 34.904 180.132L35.2541 180.234L36.5437 180.582C37.6339 180.867 39.1495 181.245 40.8291 181.628C42.5087 182.011 44.0376 182.327 45.1455 182.541L46.475 182.786L46.834 182.844H46.958C46.9198 182.828 46.8795 182.817 46.8384 182.813L46.4839 182.737L45.1544 182.465C44.0509 182.234 42.5264 181.909 40.8468 181.53C39.1672 181.152 37.6693 180.786 36.557 180.524L35.2585 180.203L34.9084 180.119L34.7843 180.092Z" fill="#263238"/>
<path d="M44.3964 182.47C44.4987 182.279 44.6238 182.101 44.769 181.94C44.9378 181.799 45.1207 181.677 45.3147 181.575C45.0804 181.6 44.8629 181.709 44.7025 181.882C44.5289 182.031 44.4192 182.242 44.3964 182.47Z" fill="#263238"/>
<path d="M42.5042 180.983C42.5042 180.983 42.6461 180.907 42.7881 180.778C42.9301 180.649 43.0232 180.528 43.0055 180.515C42.9877 180.502 42.8591 180.586 42.7216 180.72C42.584 180.853 42.4864 180.969 42.5042 180.983Z" fill="#263238"/>
<path d="M41.9859 180.564C41.9859 180.586 42.1279 180.542 42.2743 180.466C42.4207 180.39 42.5317 180.31 42.5183 180.292C42.505 180.274 42.3764 180.315 42.23 180.39C42.0836 180.466 41.9726 180.546 41.9859 180.564Z" fill="#263238"/>
<path d="M41.7595 179.852C41.8702 179.92 41.9942 179.964 42.1233 179.981C42.2457 180.024 42.3756 180.04 42.5048 180.03C42.3944 179.961 42.2702 179.916 42.141 179.901C42.0186 179.858 41.8887 179.841 41.7595 179.852Z" fill="#263238"/>
<path d="M41.7332 179.375C41.8399 179.482 41.9758 179.555 42.1236 179.584C42.2645 179.64 42.4182 179.656 42.5673 179.629C42.4323 179.575 42.2927 179.533 42.1503 179.504C42.0149 179.45 41.8754 179.407 41.7332 179.375Z" fill="#263238"/>
<path d="M42.8762 180.457C43.018 180.513 43.1675 180.546 43.3194 180.555C43.4904 180.571 43.6625 180.571 43.8335 180.555C43.9351 180.55 44.0361 180.535 44.1348 180.51C44.1947 180.493 44.2465 180.455 44.2811 180.404C44.2943 180.372 44.298 180.336 44.2917 180.302C44.2854 180.268 44.2694 180.237 44.2456 180.212C44.0895 180.089 43.8968 180.022 43.6983 180.022C43.4998 180.022 43.3071 180.089 43.151 180.212C43.0629 180.28 42.9903 180.367 42.9383 180.466C42.9028 180.533 42.8939 180.577 42.9028 180.577C42.9779 180.454 43.0757 180.347 43.1909 180.261C43.3214 180.169 43.475 180.117 43.634 180.11C43.828 180.092 44.0213 180.149 44.1747 180.27C44.2367 180.337 44.1747 180.408 44.0994 180.435C44.007 180.461 43.9117 180.476 43.8157 180.479C43.6505 180.492 43.4846 180.492 43.3194 180.479C43.0535 180.479 42.8762 180.444 42.8762 180.457Z" fill="#263238"/>
<path d="M42.9878 180.502C42.9878 180.502 43.0854 180.417 43.1031 180.217C43.1164 180.1 43.098 179.981 43.0499 179.874C43.0231 179.799 42.9784 179.732 42.9196 179.678C42.8608 179.624 42.7897 179.586 42.7127 179.567C42.6894 179.565 42.6661 179.569 42.6441 179.577C42.6221 179.585 42.6019 179.597 42.5846 179.612C42.5672 179.628 42.5532 179.647 42.5432 179.668C42.5332 179.69 42.5275 179.712 42.5264 179.736C42.5212 179.807 42.5334 179.879 42.5619 179.945C42.6032 180.053 42.6568 180.156 42.7216 180.252C42.7794 180.346 42.8565 180.427 42.9478 180.488C42.9478 180.488 42.8724 180.39 42.7792 180.226C42.7222 180.13 42.676 180.029 42.6417 179.923C42.5973 179.816 42.5929 179.642 42.7127 179.651C42.8325 179.66 42.9212 179.798 42.9745 179.901C43.0217 179.997 43.0446 180.105 43.041 180.212C43.0325 180.31 43.0146 180.407 42.9878 180.502Z" fill="#263238"/>
<path d="M35.3334 178.293C35.3334 178.293 35.5417 178.32 35.8564 178.431C36.2647 178.568 36.63 178.811 36.9155 179.135C37.1852 179.453 37.3617 179.84 37.4252 180.252C37.4739 180.569 37.4252 180.76 37.4562 180.764C37.473 180.722 37.4834 180.677 37.4872 180.631C37.503 180.504 37.503 180.375 37.4872 180.248C37.4408 179.818 37.2645 179.412 36.982 179.086C36.6868 178.748 36.3028 178.501 35.8741 178.373C35.7455 178.334 35.6134 178.307 35.4797 178.293C35.4313 178.284 35.3818 178.284 35.3334 178.293Z" fill="#263238"/>
<path d="M38.5071 180.341C38.8326 180.496 39.1767 180.609 39.5308 180.675C39.8776 180.772 40.2347 180.825 40.5944 180.836C40.5944 180.813 40.1246 180.733 39.5485 180.595C38.9724 180.457 38.5159 180.341 38.5071 180.341Z" fill="#263238"/>
<path d="M37.1022 180.035C37.1022 180.035 37.1022 180.137 37.1467 180.248C37.1912 180.36 37.1779 180.453 37.2046 180.458C37.2313 180.462 37.2625 180.36 37.2313 180.235C37.2001 180.11 37.12 180.021 37.1022 180.035Z" fill="#263238"/>
<path d="M36.7075 179.3C36.7075 179.3 36.7075 179.393 36.7787 179.478C36.8499 179.562 36.8989 179.625 36.9212 179.616C36.9435 179.607 36.9212 179.522 36.85 179.438C36.7787 179.353 36.7297 179.286 36.7075 179.3Z" fill="#263238"/>
<path d="M36.0117 178.845C36.0117 178.868 36.1093 178.89 36.2069 178.948C36.3045 179.006 36.3666 179.077 36.3888 179.068C36.411 179.059 36.3888 178.948 36.2513 178.877C36.1138 178.805 36.0117 178.823 36.0117 178.845Z" fill="#263238"/>
<path d="M35.5022 178.591C35.5022 178.591 35.5022 178.653 35.5779 178.689C35.6536 178.725 35.6892 178.738 35.7026 178.716C35.7159 178.693 35.7026 178.653 35.6269 178.618C35.5512 178.582 35.5156 178.56 35.5022 178.591Z" fill="#263238"/>
<path d="M63.6965 42.0392C63.5103 41.5093 63.0672 41.113 62.85 40.5965C62.5265 39.8217 62.7614 38.9445 62.85 38.1118C62.9387 37.2791 62.7658 36.2638 62.0036 35.921C61.6733 35.8341 61.3491 35.7255 61.0331 35.5959C60.4392 35.2219 60.4702 34.3758 60.4171 33.6767C60.3818 33.2138 60.2632 32.7612 60.067 32.3409L60.191 32.3008C60.6407 32.1913 61.1143 32.2442 61.5291 32.4501C61.9439 32.656 62.2734 33.002 62.46 33.4274C62.5412 33.6054 62.5764 33.8011 62.5624 33.9964C62.5485 34.1918 62.4859 34.3804 62.3803 34.545C62.289 34.6819 62.1546 34.7839 61.9987 34.8348C61.8428 34.8856 61.6744 34.8824 61.5205 34.8256C61.4009 34.7637 61.305 34.6637 61.248 34.5412C61.1911 34.4187 61.1763 34.2806 61.2059 34.1487C61.243 34.0543 61.3111 33.9754 61.399 33.9252C61.4869 33.8749 61.5892 33.8564 61.6889 33.8726C61.7565 33.8791 61.8221 33.8994 61.8815 33.9324C61.941 33.9653 61.9931 34.0101 62.0346 34.0641C62.0834 34.1443 62.0878 34.2022 62.1011 34.1977C62.1144 34.1933 62.1232 34.1398 62.1011 34.0419C62.0646 33.9704 62.0119 33.9086 61.9472 33.8614C61.8825 33.8143 61.8077 33.783 61.7288 33.7702C61.6133 33.7487 61.4941 33.7579 61.3832 33.7969C61.3149 33.822 61.2531 33.8623 61.2024 33.9147C61.1518 33.9672 61.1136 34.0304 61.0907 34.0997C61.039 34.2675 61.0471 34.4481 61.1134 34.6105C61.1797 34.773 61.3001 34.9073 61.4541 34.9903C61.6481 35.0758 61.8656 35.0914 62.0698 35.0346C62.274 34.9779 62.4525 34.8521 62.5753 34.6786C62.7083 34.4855 62.7904 34.2616 62.8136 34.028C62.8369 33.7943 62.8006 33.5585 62.7082 33.3428C62.5186 32.8946 62.1879 32.5212 61.7668 32.2799C61.3458 32.0386 60.8577 31.9427 60.3772 32.0069C60.4814 31.8302 60.5476 31.6334 60.5712 31.4293C60.5949 31.2253 60.5756 31.0185 60.5146 30.8224C60.4331 30.5835 60.2985 30.3663 60.1212 30.1874C59.9438 30.0084 59.7283 29.8723 59.4908 29.7894C59.0749 29.6357 58.6225 29.6108 58.1924 29.7181C57.8284 29.807 57.4822 29.9575 57.1687 30.1634C56.8806 30.3504 56.659 30.5553 56.4419 30.6933C56.265 30.8198 56.0592 30.8995 55.8436 30.9248C55.6579 30.94 55.4719 30.9013 55.3074 30.8135C55.3074 30.8135 55.4447 31.0273 55.8525 31.0273C56.0891 31.021 56.3193 30.9485 56.5172 30.818C56.7565 30.6844 56.987 30.484 57.2662 30.3192C57.574 30.1049 57.9269 29.9649 58.2974 29.91C58.6679 29.8552 59.046 29.8871 59.4022 30.0031C59.6036 30.0768 59.7858 30.1952 59.9354 30.3493C60.085 30.5035 60.1981 30.6896 60.2664 30.8937C60.332 31.1007 60.3382 31.3221 60.2841 31.5324C60.23 31.7428 60.1178 31.9335 59.9606 32.0826C59.7361 31.6724 59.4053 31.3308 59.0034 31.0941C58.117 30.5909 56.7875 30.8358 56.3444 31.7531L49.072 29.2417C48.6161 28.8566 48.071 28.5931 47.487 28.4756C46.903 28.3581 46.2989 28.3903 45.7306 28.5693L45.5799 28.5426C45.1599 28.5004 44.7363 28.5711 44.3523 28.7474C43.8664 29.0184 43.4423 29.3885 43.107 29.8339C42.9083 30.0657 42.6715 30.2615 42.4068 30.4128C42.3631 30.4366 42.317 30.456 42.2695 30.4706C41.9473 30.5071 41.6229 30.519 41.2989 30.5063C40.6874 30.3638 40.0536 30.012 39.3002 29.9363C38.8776 29.8797 38.4479 29.91 38.0372 30.0254C37.6038 30.1513 37.215 30.3984 36.916 30.7378C36.595 31.1021 36.4212 31.5738 36.4285 32.0603C36.4321 32.4033 36.4859 32.7439 36.5881 33.0711C36.4246 33.512 36.3523 33.9817 36.3754 34.4515C36.4064 35.0705 36.5836 35.7161 36.5881 36.3262C36.412 36.4666 36.2103 36.571 35.9942 36.6334C35.6131 36.7537 35.201 36.8115 34.811 36.9629C34.4456 37.1116 34.1162 37.3371 33.8448 37.6244C33.5735 37.9117 33.3665 38.254 33.2378 38.6283C33.1177 38.9277 33.0731 39.2521 33.1078 39.573C33.1426 39.8938 33.2558 40.201 33.4372 40.4674C33.3419 40.874 33.3381 41.297 33.4263 41.7053C33.5145 42.1136 33.6923 42.497 33.9468 42.8274C34.3517 43.2125 34.7335 43.6214 35.0902 44.0519C35.5644 44.7956 35.4979 45.7529 35.6175 46.6301C35.7372 47.5074 36.2468 48.5004 37.1287 48.5582C37.8378 48.6072 38.4582 48.0061 39.185 48.0684C40.1777 48.1486 40.5854 49.3464 41.1615 50.1657C41.5331 50.6798 42.0348 51.0847 42.6145 51.3383C43.1943 51.592 43.831 51.6853 44.4587 51.6085C45.345 51.4838 46.2624 51.0073 47.1443 51.23C48.2566 51.515 48.9169 52.8241 50.0603 53.0111C50.9067 53.1314 51.6911 52.5658 52.316 51.987C52.9409 51.4081 53.5835 50.7402 54.4255 50.5888C55.4359 50.4062 56.4108 51.034 57.4301 51.1587C58.0911 51.2386 58.7609 51.1212 59.3559 50.821C59.951 50.5209 60.4449 50.0514 60.776 49.4711C61.3388 48.4514 61.3344 47.2001 61.8573 46.1626C62.2609 45.5017 62.7049 44.8667 63.1868 44.2612C63.6433 43.5933 63.9535 42.774 63.6965 42.0392ZM34.5362 38.7396C34.4544 38.7221 34.3699 38.7221 34.2881 38.7396C34.2881 38.7396 34.359 38.7396 34.483 38.7886L34.3501 38.891C33.9352 39.2383 33.6353 39.7042 33.4904 40.2269C33.3795 39.9905 33.3183 39.7336 33.3107 39.4723C33.3031 39.2111 33.3492 38.951 33.446 38.7085C33.5668 38.3672 33.7585 38.0557 34.0084 37.7947C34.2582 37.5337 34.5605 37.3291 34.8952 37.1945C35.2542 37.0609 35.6574 37.003 36.0696 36.8783C36.2475 36.8261 36.4175 36.7497 36.5748 36.6512C36.5517 36.8929 36.4809 37.1276 36.3665 37.3414C35.9854 38.0183 35.1788 38.2944 34.5362 38.7396ZM39.4997 30.5463C38.913 30.6621 38.3616 30.9146 37.8898 31.2835C37.418 31.6524 37.0389 32.1274 36.7831 32.6704C36.7304 32.471 36.6992 32.2664 36.69 32.0603C36.688 31.6443 36.8377 31.2419 37.111 30.9293C37.3842 30.6397 37.7235 30.4215 38.0996 30.2935C38.4757 30.1654 38.8771 30.1315 39.2692 30.1946C39.6789 30.2485 40.0806 30.3516 40.4658 30.5018C40.1427 30.4963 39.8198 30.5156 39.4997 30.5597V30.5463ZM43.1469 30.2391C43.057 30.2764 42.9653 30.3091 42.8722 30.3371C43.0039 30.2203 43.1282 30.0954 43.2444 29.963C43.556 29.5296 43.9508 29.1632 44.4055 28.8854C44.739 28.7214 45.1068 28.6405 45.478 28.6494C45.2882 28.7244 45.1057 28.8168 44.9329 28.9255C44.3169 29.3396 43.8161 29.9408 43.1469 30.2525V30.2391Z" fill="#263238"/>
<path d="M58.9101 45.5482C59.2558 43.3574 59.145 39.7595 58.9633 36.8161C58.9243 36.1888 58.7594 35.5759 58.4784 35.0144C58.1974 34.4528 57.8063 33.9542 57.3285 33.5486C56.8506 33.143 56.2961 32.8387 55.6981 32.6541C55.1002 32.4695 54.4712 32.4085 53.8492 32.4746L46.2312 33.285C45.8469 33.3261 45.4919 33.5102 45.236 33.8011C44.9802 34.092 44.8419 34.4687 44.8485 34.8569L45.6462 53.6614H43.8735V57.0634C43.8735 58.934 44.6131 60.7281 45.9296 62.0509C47.246 63.3736 49.0315 64.1167 50.8933 64.1167C52.755 64.1167 54.5405 63.3736 55.857 62.0509C57.1734 60.7281 57.913 58.934 57.913 57.0634V54.12C57.913 54.12 56.0872 53.5189 54.9792 53.5812H54.7045C54.7045 51.858 54.8463 50.5087 54.8463 50.5087C54.8463 50.5087 58.2143 49.961 58.9101 45.5482Z" fill="#FFBE9D"/>
<path d="M57.8201 39.6751C57.8225 39.8224 57.7672 39.9647 57.666 40.0714C57.5648 40.178 57.426 40.2404 57.2795 40.245C57.2077 40.2505 57.1356 40.2415 57.0674 40.2186C56.9991 40.1957 56.9361 40.1593 56.8821 40.1116C56.828 40.0639 56.784 40.0059 56.7525 39.9408C56.7211 39.8758 56.7028 39.8052 56.6989 39.733C56.7033 39.5899 56.7615 39.4538 56.8619 39.3521C56.9622 39.2505 57.0972 39.1908 57.2396 39.1853C57.3809 39.1741 57.521 39.2192 57.6296 39.3108C57.7382 39.4024 57.8066 39.5333 57.8201 39.6751Z" fill="#263238"/>
<path d="M58.1876 38.6909C58.1167 38.7622 57.6913 38.446 57.0842 38.446C56.477 38.446 56.0339 38.7533 55.9674 38.6776C55.9009 38.6019 56.0073 38.5128 56.2023 38.3703C56.4634 38.1909 56.7723 38.0947 57.0886 38.0943C57.4066 38.0926 57.717 38.1924 57.9749 38.3792C58.1566 38.5217 58.2187 38.6553 58.1876 38.6909Z" fill="#263238"/>
<path d="M51.8992 39.6751C51.8993 39.8225 51.8426 39.9642 51.741 40.0704C51.6393 40.1767 51.5007 40.2393 51.3541 40.245C51.2824 40.2505 51.2103 40.2415 51.142 40.2186C51.0738 40.1957 51.0108 40.1593 50.9567 40.1116C50.9027 40.0639 50.8586 40.0059 50.8272 39.9408C50.7957 39.8758 50.7775 39.8052 50.7736 39.733C50.779 39.5895 50.8382 39.4533 50.9393 39.3518C51.0403 39.2502 51.1758 39.1908 51.3187 39.1853C51.46 39.1741 51.6001 39.2192 51.7087 39.3108C51.8173 39.4024 51.8857 39.5333 51.8992 39.6751Z" fill="#263238"/>
<path d="M52.2314 38.8024C52.1605 38.8781 51.7306 38.562 51.1279 38.562C50.5252 38.562 50.0776 38.8692 50.0112 38.7935C49.9447 38.7178 50.051 38.6288 50.246 38.4863C50.5052 38.3029 50.8154 38.2063 51.1324 38.2102C51.451 38.2044 51.7626 38.3046 52.0187 38.4952C52.2004 38.6377 52.2624 38.7713 52.2314 38.8024Z" fill="#263238"/>
<path d="M54.4298 43.3174C54.7491 43.2171 55.0796 43.1573 55.4136 43.1393C55.5687 43.1393 55.715 43.0948 55.7415 42.9879C55.7492 42.8323 55.7123 42.6778 55.6352 42.5426C55.4934 42.1686 55.3383 41.7722 55.192 41.3581C54.7675 40.3482 54.4237 39.3059 54.1639 38.2411C54.2348 38.2144 54.802 39.577 55.4402 41.2468L55.8834 42.4402C55.9787 42.6283 56.0069 42.8437 55.9631 43.0502C55.94 43.105 55.9049 43.1539 55.8604 43.1932C55.8159 43.2326 55.7632 43.2613 55.7061 43.2773C55.6205 43.2987 55.5328 43.3106 55.4446 43.3129C55.108 43.3584 54.7668 43.3599 54.4298 43.3174Z" fill="#263238"/>
<path d="M54.8465 50.5221C52.7788 50.5537 50.743 50.008 48.9657 48.9458C48.9657 48.9458 50.3927 51.9782 54.7889 51.5641L54.8465 50.5221Z" fill="#EB996E"/>
<path d="M54.1726 44.7866C54.0573 44.6405 53.907 44.5262 53.7356 44.4546C53.5643 44.3829 53.3777 44.3562 53.1932 44.3769C53.0596 44.3896 52.9299 44.4293 52.8118 44.4935C52.6938 44.5578 52.5899 44.6454 52.5063 44.751C52.4252 44.8515 52.377 44.9748 52.3683 45.1039C52.3595 45.233 52.3907 45.3617 52.4576 45.4723C52.5547 45.5816 52.682 45.6595 52.8232 45.6959C52.9645 45.7324 53.1133 45.7259 53.2509 45.6772C53.535 45.5792 53.7981 45.4281 54.0264 45.2319C54.0949 45.1824 54.1535 45.1205 54.1992 45.0493C54.221 45.0155 54.2326 44.9761 54.2326 44.9358C54.2326 44.8955 54.221 44.8561 54.1992 44.8222" fill="#EB996E"/>
<path d="M52.6439 43.7403C52.7459 43.7403 52.7459 44.3949 53.3087 44.8624C53.8715 45.33 54.5717 45.2588 54.5761 45.3523C54.5806 45.4458 54.421 45.4814 54.133 45.4903C53.7472 45.4944 53.3723 45.3619 53.0738 45.1163C52.7876 44.882 52.6033 44.545 52.5597 44.1767C52.5287 43.9006 52.5996 43.7359 52.6439 43.7403Z" fill="#263238"/>
<path d="M52.5018 37.7381C52.4442 37.9028 51.8371 37.8227 51.128 37.9117C50.4189 38.0008 49.8428 38.1923 49.7453 38.0409C49.7054 37.9696 49.8029 37.8182 50.0378 37.6579C50.3427 37.455 50.6929 37.3311 51.0571 37.2972C51.4208 37.2504 51.7904 37.2932 52.134 37.4219C52.3955 37.5288 52.5284 37.6579 52.5018 37.7381Z" fill="#263238"/>
<path d="M57.9617 37.444C57.8553 37.582 57.4388 37.444 56.938 37.444C56.4372 37.444 56.0118 37.5375 55.9143 37.3906C55.87 37.3193 55.9143 37.1813 56.1226 37.0521C56.3721 36.8952 56.6622 36.8162 56.9565 36.8249C57.2507 36.8336 57.5357 36.9297 57.7756 37.1011C57.9528 37.2347 58.0104 37.3772 57.9617 37.444Z" fill="#263238"/>
<path d="M60.5984 32.8798C60.2971 31.7043 59.4107 30.6178 58.2231 30.3951C57.4475 30.2527 56.6542 30.4797 55.8654 30.4308C55.2184 30.3907 54.9791 29.8697 54.3675 29.6649C53.3349 29.3265 52.5461 28.1776 50.3258 28.4181C49.7364 28.4849 48.9698 29.1706 48.4291 29.9588C47.5782 29.5892 46.457 29.9855 45.8454 30.2571C44.5736 30.8137 43.7803 32.252 43.5277 33.7125C43.2751 35.1731 43.4834 36.6737 43.6872 38.1654L43.9664 40.1781C44.0041 40.6241 44.1243 41.059 44.321 41.4606L43.3105 50.9007C43.8157 51.0632 44.3486 51.1206 44.8766 51.0694C45.4046 51.0182 45.9167 50.8594 46.3816 50.6027C46.8465 50.346 47.2544 49.9968 47.5806 49.5764C47.9067 49.1561 48.1441 48.6733 48.2784 48.1577C48.6728 46.3008 47.6447 44.4128 47.8087 42.5203C47.9017 41.3938 48.5355 40.3473 48.531 39.2163C48.5274 38.8444 48.4753 38.4747 48.3759 38.1164C50.1486 36.6603 50.6183 35.4892 50.543 34.1088C51.0901 34.4932 51.7371 34.7083 52.4043 34.7278C53.3438 34.7278 54.3188 34.3716 55.2007 34.7278C55.8344 34.9682 56.282 35.5249 56.765 36.0013C57.2481 36.4778 57.8729 36.9231 58.5377 36.8296C58.8567 36.7533 59.1671 36.6444 59.4639 36.5045C59.6114 36.434 59.7726 36.3975 59.9359 36.3975C60.0992 36.3975 60.2604 36.434 60.4079 36.5045C60.7709 35.3311 60.8365 34.0851 60.5984 32.8798Z" fill="#263238"/>
<path d="M34.3458 42.5469C34.7994 42.8794 35.2885 43.1601 35.8038 43.384C36.4076 43.6396 37.0544 43.7771 37.7094 43.7893C38.575 43.8122 39.425 43.5546 40.1335 43.0545C40.5616 42.7592 40.923 42.3766 41.194 41.9316C41.4651 41.4866 41.6398 40.9892 41.7068 40.4719C41.7713 39.8984 41.6551 39.319 41.3744 38.8154C41.2272 38.5581 41.0183 38.3419 40.7668 38.1864C40.5152 38.0309 40.229 37.9409 39.9341 37.9248C39.6318 37.9185 39.3364 38.0158 39.0965 38.2009C38.8569 38.4035 38.6801 38.6708 38.5869 38.9712C38.4823 39.2812 38.4584 39.6129 38.5173 39.9348C38.5763 40.2566 38.7162 40.558 38.9237 40.8103C39.3745 41.3392 39.9842 41.7064 40.6609 41.8567C41.3592 42.023 42.0853 42.0337 42.7881 41.8879C43.4937 41.7461 44.1567 41.4412 44.7247 40.9973C45.2623 40.5759 45.674 40.0139 45.9148 39.373C46.1555 38.7321 46.216 38.0369 46.0897 37.3638C46.0255 37.052 45.915 36.7518 45.7617 36.4732C45.6183 36.1959 45.4137 35.9552 45.1635 35.7696C44.9311 35.5857 44.6479 35.4784 44.3525 35.4624C44.2154 35.4577 44.0797 35.4909 43.9601 35.5585C43.8405 35.626 43.7417 35.7252 43.6744 35.8453C43.5439 36.0897 43.5122 36.3751 43.5858 36.6424C43.6698 36.9079 43.8228 37.1462 44.029 37.3326C44.4205 37.6751 44.8791 37.9313 45.3753 38.0847C45.8715 38.2381 46.3941 38.2852 46.9095 38.2232C47.7713 38.1421 48.5766 37.7572 49.183 37.1367C49.6396 36.6638 49.9743 36.086 50.1579 35.4535C50.3073 34.9119 50.3539 34.347 50.2953 33.7881C50.3362 33.9332 50.36 34.0827 50.3662 34.2334C50.3958 34.6572 50.3553 35.083 50.2466 35.4935C50.0745 36.1486 49.7424 36.7501 49.2805 37.2435C48.6585 37.8997 47.8242 38.3117 46.9273 38.4057C46.3874 38.4794 45.8382 38.4381 45.3152 38.2847C44.7922 38.1313 44.3072 37.8691 43.8916 37.5151C43.662 37.3045 43.4935 37.0352 43.4041 36.7359C43.3116 36.4157 43.3482 36.0718 43.506 35.7785C43.5912 35.6265 43.7156 35.5004 43.8662 35.4134C44.0167 35.3264 44.1877 35.2818 44.3613 35.2843C44.7056 35.2987 45.0369 35.4201 45.3097 35.6316C45.5852 35.8346 45.8111 36.098 45.97 36.4019C46.1416 36.7048 46.2615 37.0344 46.3246 37.3771C46.4641 38.0791 46.4089 38.8062 46.165 39.4789C45.9168 40.1813 45.4759 40.7988 44.8931 41.26C44.2943 41.7234 43.5964 42.0405 42.8546 42.1862C42.1217 42.3331 41.3659 42.3194 40.6388 42.1461C39.8918 41.9767 39.2227 41.5614 38.7376 40.9661C38.5053 40.6802 38.3524 40.3376 38.2944 39.9731C38.2376 39.6167 38.2664 39.2518 38.3786 38.9089C38.4841 38.5605 38.6891 38.2508 38.968 38.0183C39.2478 37.8008 39.5939 37.6875 39.9474 37.6977C40.2805 37.7157 40.6036 37.8182 40.8865 37.9958C41.1693 38.1734 41.4028 38.4201 41.565 38.713C41.8675 39.254 41.9887 39.8785 41.9106 40.4941C41.8365 41.0372 41.649 41.5583 41.3603 42.0234C41.0716 42.4884 40.6882 42.8869 40.2355 43.1926C39.4938 43.7068 38.6052 43.9633 37.705 43.9228C37.0353 43.9032 36.3758 43.7519 35.7639 43.4776C35.378 43.3096 35.0135 43.0958 34.6782 42.8408C34.563 42.7562 34.4832 42.6805 34.4256 42.636C34.368 42.5914 34.3414 42.5514 34.3458 42.5469Z" fill="#455A64"/>
<path d="M60.8508 34.8748C60.7915 34.9368 60.7207 34.9867 60.6425 35.0217C60.4237 35.1433 60.1875 35.2304 59.9423 35.28C59.5549 35.3594 59.1554 35.3594 58.768 35.28C58.2529 35.1596 57.7761 34.9116 57.3809 34.5586C56.8974 34.1263 56.521 33.5865 56.2818 32.9823C56.2022 32.8109 56.158 32.6251 56.1519 32.436C56.1458 32.247 56.1779 32.0586 56.2464 31.8824C56.3275 31.69 56.4734 31.5324 56.6585 31.4371C56.7566 31.3867 56.8652 31.3604 56.9754 31.3604C57.0855 31.3604 57.1941 31.3867 57.2922 31.4371C57.4818 31.5493 57.6285 31.7222 57.7089 31.928C57.7892 32.1339 57.7985 32.3608 57.7354 32.5726C57.6585 32.7797 57.5402 32.9687 57.3878 33.128C57.2353 33.2873 57.052 33.4135 56.8491 33.4988C56.4448 33.6744 56.01 33.7679 55.5696 33.774C55.1293 33.7801 54.6921 33.6987 54.2831 33.5344C53.8694 33.388 53.4726 33.1969 53.0999 32.9645C52.7259 32.7485 52.3867 32.4768 52.0939 32.1585C51.9365 31.9907 51.8406 31.774 51.8221 31.5442C51.8036 31.3143 51.8635 31.085 51.992 30.8939C52.067 30.8017 52.1657 30.7318 52.2774 30.6918C52.3891 30.6518 52.5095 30.6431 52.6257 30.6668C52.8406 30.7133 53.0321 30.8348 53.1664 31.0097C53.2347 31.0936 53.2856 31.1904 53.3161 31.2944C53.3465 31.3984 53.3559 31.5075 53.3436 31.6153C53.3139 31.8177 53.2278 32.0075 53.0955 32.163C52.8475 32.449 52.4971 32.6251 52.1205 32.6528C51.7843 32.6768 51.4468 32.6329 51.1278 32.5236C50.8391 32.4315 50.5564 32.3215 50.2814 32.1941C49.7932 31.9909 49.3668 31.6623 49.0449 31.2412C48.8093 30.9104 48.6964 30.507 48.7258 30.1013C48.7391 29.8475 48.8288 29.6037 48.9829 29.4022C49.0359 29.332 49.1022 29.273 49.1779 29.2285C48.9524 29.4704 48.8245 29.7878 48.8189 30.1191C48.8187 30.502 48.9502 30.8733 49.1912 31.17C49.5075 31.5668 49.9215 31.8738 50.3921 32.0605C50.9414 32.34 51.5492 32.4835 52.1648 32.4791C52.49 32.4467 52.7894 32.2867 52.998 32.0338C53.1134 31.9177 53.1829 31.7633 53.1935 31.5994C53.2041 31.4356 53.1551 31.2735 53.0556 31.1433C52.8606 30.8805 52.4351 30.7648 52.2313 31.0364C52.1318 31.1754 52.0904 31.348 52.1161 31.5173C52.142 31.6984 52.2189 31.8683 52.3376 32.0071C52.6177 32.2994 52.9369 32.5512 53.286 32.7552C53.6433 32.9785 54.0237 33.1621 54.4205 33.3029C54.7983 33.4609 55.2034 33.5422 55.6126 33.5422C56.0218 33.5422 56.427 33.4609 56.8047 33.3029C56.9762 33.231 57.1314 33.1248 57.2609 32.9909C57.3904 32.8569 57.4915 32.698 57.5581 32.5236C57.6116 32.3584 57.6069 32.1797 57.5448 32.0175C57.4826 31.8554 57.3669 31.7196 57.2169 31.6331C57.1463 31.601 57.0699 31.5841 56.9925 31.5836C56.9151 31.583 56.8384 31.5988 56.7674 31.6298C56.6964 31.6609 56.6327 31.7065 56.5804 31.7638C56.528 31.8212 56.4882 31.8889 56.4635 31.9626C56.406 32.1126 56.3791 32.2727 56.3844 32.4333C56.3897 32.594 56.4272 32.7519 56.4945 32.8977C56.7156 33.4672 57.0626 33.9788 57.5094 34.3939C57.8885 34.7381 58.3445 34.9855 58.8389 35.1152C59.208 35.2095 59.5922 35.2292 59.9689 35.1731C60.2747 35.113 60.5712 35.0127 60.8508 34.8748Z" fill="#455A64"/>
<path d="M48.0568 45.2318C48.0015 45.2919 47.9372 45.343 47.8662 45.3832C47.6721 45.5129 47.4533 45.6009 47.2237 45.6415C46.8576 45.717 46.478 45.6924 46.1246 45.5702C45.8853 45.4972 45.664 45.3742 45.4753 45.2092C45.2867 45.0442 45.1349 44.841 45.03 44.6128C44.9572 44.4663 44.9342 44.2999 44.9647 44.139C44.9951 43.9781 45.0772 43.8317 45.1984 43.7223C45.3349 43.6165 45.5024 43.5591 45.6748 43.5591C45.8472 43.5591 46.0147 43.6165 46.1512 43.7223C46.4239 43.9488 46.6311 44.2447 46.7512 44.5792C46.8712 44.9136 46.8997 45.2743 46.8337 45.6236C46.7884 46.0111 46.647 46.3809 46.4224 46.6991C46.1979 47.0173 45.8974 47.2737 45.5485 47.4449C45.1661 47.6063 44.751 47.6744 44.3373 47.6434C43.9236 47.6125 43.5231 47.4834 43.1687 47.2668C42.8017 47.0598 42.4888 46.7683 42.2558 46.4163C42.1373 46.24 42.0569 46.0408 42.0195 45.8315C41.9821 45.6221 41.9886 45.4073 42.0386 45.2006C42.0919 44.9939 42.2007 44.806 42.3533 44.6574C42.4305 44.5816 42.5221 44.5221 42.6225 44.4823C42.723 44.4426 42.8303 44.4233 42.9383 44.4258C43.137 44.4466 43.3273 44.5181 43.4909 44.6334C43.6545 44.7487 43.7862 44.9041 43.8733 45.0848C44.0383 45.4074 44.1263 45.7642 44.1304 46.1268C44.1471 46.4606 44.1158 46.795 44.0373 47.1198C43.8979 47.7106 43.5899 48.2476 43.151 48.665C42.8373 48.9693 42.4413 49.1739 42.0124 49.2531C41.5836 49.3323 41.141 49.2826 40.7402 49.1102C40.5258 49.0163 40.3305 48.8835 40.164 48.7184C40.1039 48.6648 40.053 48.6016 40.0134 48.5314C40.2396 48.7348 40.497 48.9002 40.7756 49.0212C41.1061 49.1467 41.4616 49.191 41.8126 49.1503C42.2865 49.0937 42.7271 48.8771 43.0623 48.5358C43.4628 48.1346 43.7398 47.626 43.86 47.0708C43.9316 46.7631 43.9585 46.4467 43.9398 46.1313C43.9303 45.8036 43.8469 45.4824 43.6961 45.1917C43.6243 45.0464 43.5164 44.9221 43.3829 44.8308C43.2494 44.7396 43.0947 44.6844 42.9338 44.6707C42.7705 44.6806 42.6154 44.7459 42.4938 44.8559C42.3722 44.9659 42.2914 45.1141 42.2646 45.2763C42.2239 45.451 42.2198 45.6322 42.2526 45.8086C42.2854 45.9849 42.3544 46.1524 42.4552 46.3005C42.6711 46.6187 42.9559 46.8836 43.2884 47.0753C43.6105 47.2716 43.974 47.3892 44.3496 47.4186C44.7253 47.448 45.1025 47.3884 45.451 47.2445C45.7655 47.0896 46.0365 46.8581 46.2393 46.5712C46.4421 46.2842 46.5702 45.9508 46.6121 45.6014C46.6752 45.2924 46.6556 44.9721 46.5551 44.6732C46.4547 44.3743 46.2771 44.1076 46.0404 43.9004C45.9364 43.8195 45.8086 43.7756 45.677 43.7756C45.5455 43.7756 45.4177 43.8195 45.3136 43.9004C45.2255 43.9844 45.1661 44.0942 45.1438 44.2141C45.1215 44.3341 45.1375 44.458 45.1895 44.5683C45.2827 44.7775 45.4183 44.9648 45.5877 45.1181C45.7571 45.2715 45.9566 45.3876 46.1734 45.4589C46.5029 45.5821 46.8583 45.6188 47.2059 45.5658C47.5059 45.5021 47.7934 45.3893 48.0568 45.2318Z" fill="#455A64"/>
<path d="M29.7498 153.477C29.7498 153.477 32.7102 159.266 40.4434 156.452C40.4434 156.452 48.0126 160.584 55.2495 155.958C55.2495 155.958 64.6269 157.218 69.7277 154.738L63.1645 97.901L62.3357 89.1733H41.6577C41.6577 89.1733 35.511 91.9831 34.5271 105.702C33.5433 119.422 31.3984 138.266 31.3984 138.266L29.7498 153.477Z" fill="#263238"/>
<path d="M54.811 156.131C54.7997 156.074 54.7923 156.016 54.7888 155.958C54.7888 155.833 54.7622 155.668 54.7445 155.455C54.709 155.009 54.6603 154.346 54.5938 153.513C54.4653 151.83 54.3058 149.39 54.1507 146.388C53.7917 140.355 53.4106 132.015 53.2067 122.788C53.0029 113.562 53.0339 105.213 53.1314 99.1657C53.1757 96.1466 53.2333 93.702 53.2865 92.0143C53.3175 91.1772 53.3397 90.5271 53.353 90.0684C53.353 89.8547 53.353 89.6855 53.353 89.5608C53.3483 89.5045 53.3483 89.4479 53.353 89.3916C53.3568 89.4479 53.3568 89.5045 53.353 89.5608V90.0684C53.353 90.5137 53.353 91.1817 53.353 92.0143C53.3308 93.7153 53.3042 96.16 53.2688 99.1701C53.2111 105.213 53.2156 113.562 53.415 122.77C53.6144 131.979 53.969 140.328 54.3013 146.371C54.4653 149.381 54.5983 151.817 54.6913 153.518C54.7401 154.35 54.7755 155.005 54.7977 155.459C54.7977 155.673 54.7977 155.842 54.8198 155.967C54.8222 156.022 54.8192 156.077 54.811 156.131Z" fill="#455A64"/>
<path d="M56.6233 139.873C56.6233 139.873 56.6677 139.811 56.7873 139.78C56.9564 139.743 57.1331 139.765 57.2881 139.842C57.4075 139.9 57.5125 139.984 57.5954 140.088C57.6782 140.192 57.7368 140.314 57.7667 140.443C57.7827 140.609 57.7505 140.777 57.674 140.925C57.5975 141.073 57.48 141.195 57.3357 141.278C57.1913 141.36 57.0263 141.399 56.8606 141.389C56.6949 141.379 56.5355 141.321 56.4018 141.223C56.3045 141.132 56.2295 141.021 56.1826 140.896C56.1357 140.772 56.1182 140.638 56.1314 140.506C56.1431 140.331 56.2152 140.165 56.3353 140.038C56.4195 139.954 56.486 139.936 56.4948 139.945C56.3743 140.111 56.3049 140.309 56.2954 140.515C56.2936 140.618 56.3146 140.721 56.3567 140.816C56.3988 140.91 56.4611 140.995 56.5391 141.062C56.64 141.131 56.7588 141.167 56.8804 141.167C57.0019 141.167 57.1207 141.131 57.2216 141.062C57.3311 141.008 57.4216 140.921 57.4809 140.814C57.5403 140.706 57.5658 140.583 57.554 140.461C57.5361 140.36 57.4963 140.263 57.4373 140.178C57.3784 140.094 57.3017 140.023 57.2127 139.971C57.0307 139.88 56.8251 139.845 56.6233 139.873Z" fill="#455A64"/>
<path d="M56.1664 122.984C56.1664 122.984 56.2108 122.926 56.326 122.89C56.4971 122.855 56.675 122.879 56.8312 122.957C56.9498 123.016 57.054 123.1 57.136 123.204C57.218 123.308 57.2759 123.429 57.3054 123.558C57.328 123.726 57.2974 123.897 57.2179 124.047C57.1383 124.196 57.0138 124.317 56.8622 124.391C56.72 124.48 56.5537 124.523 56.3862 124.514C56.2188 124.504 56.0584 124.443 55.9271 124.338C55.8302 124.247 55.7554 124.135 55.7085 124.011C55.6616 123.887 55.6439 123.753 55.6568 123.621C55.6673 123.445 55.7396 123.28 55.8607 123.153C55.9493 123.064 56.0158 123.051 56.0202 123.06C55.9013 123.225 55.8321 123.421 55.8208 123.625C55.8208 123.729 55.8425 123.831 55.8845 123.925C55.9265 124.02 55.9878 124.104 56.0645 124.173C56.1649 124.242 56.2839 124.279 56.4058 124.279C56.5276 124.279 56.6466 124.242 56.747 124.173C56.8566 124.118 56.9472 124.031 57.0073 123.924C57.0673 123.817 57.094 123.694 57.0838 123.572C57.0651 123.47 57.0245 123.373 56.9648 123.288C56.9051 123.204 56.8278 123.133 56.7381 123.082C56.5599 122.998 56.3623 122.964 56.1664 122.984Z" fill="#455A64"/>
<path d="M55.8962 108.058C55.8962 108.058 55.9406 108 56.0558 107.969C56.2262 107.929 56.4052 107.951 56.561 108.031C56.6833 108.089 56.7901 108.175 56.8725 108.283C56.955 108.39 57.0107 108.516 57.0352 108.65C57.0578 108.818 57.0272 108.989 56.9477 109.138C56.8681 109.288 56.7436 109.408 56.592 109.483C56.4498 109.572 56.2835 109.615 56.116 109.605C55.9485 109.596 55.7882 109.534 55.6569 109.429C55.56 109.339 55.4852 109.227 55.4383 109.102C55.3914 108.978 55.3737 108.845 55.3866 108.712C55.4022 108.545 55.4741 108.388 55.5905 108.267C55.6791 108.178 55.7456 108.165 55.75 108.173C55.6322 108.34 55.5631 108.535 55.5506 108.739C55.55 108.842 55.5714 108.945 55.6135 109.039C55.6555 109.134 55.7172 109.218 55.7943 109.287C55.8956 109.353 56.0129 109.389 56.1335 109.393C56.2542 109.397 56.3735 109.367 56.4786 109.308C56.5836 109.248 56.6704 109.16 56.7295 109.055C56.7885 108.949 56.8176 108.829 56.8136 108.708C56.7944 108.605 56.7536 108.508 56.694 108.423C56.6344 108.338 56.5573 108.266 56.4679 108.214C56.2954 108.109 56.0975 108.055 55.8962 108.058Z" fill="#455A64"/>
<path d="M55.3692 92.0897C55.3692 92.0897 55.4091 92.0274 55.5287 91.9962C55.6978 91.9589 55.8746 91.9809 56.0295 92.0586C56.1489 92.1164 56.254 92.2005 56.3368 92.3045C56.4196 92.4085 56.4782 92.5299 56.5081 92.6597C56.5251 92.8261 56.4936 92.9939 56.4175 93.1426C56.3414 93.2914 56.2239 93.4148 56.0794 93.4978C55.9349 93.5808 55.7694 93.6198 55.6033 93.6101C55.4371 93.6005 55.2772 93.5426 55.1432 93.4434C55.0472 93.3512 54.9731 93.2385 54.9263 93.1136C54.8795 92.9888 54.8612 92.855 54.8728 92.722C54.8904 92.5552 54.962 92.3987 55.0767 92.2768C55.1609 92.1922 55.2318 92.1743 55.2362 92.1833C55.1157 92.3495 55.0463 92.5477 55.0368 92.7532C55.035 92.8569 55.056 92.9597 55.0981 93.0543C55.1402 93.1489 55.2025 93.2331 55.2805 93.3009C55.3824 93.3655 55.4999 93.4011 55.6203 93.4038C55.7407 93.4066 55.8596 93.3764 55.9643 93.3165C56.069 93.2566 56.1555 93.1692 56.2146 93.0637C56.2737 92.9582 56.3032 92.8386 56.2998 92.7176C56.2803 92.6159 56.2394 92.5196 56.1798 92.4351C56.1201 92.3506 56.0432 92.2799 55.9542 92.2278C55.7779 92.1224 55.5737 92.0742 55.3692 92.0897Z" fill="#455A64"/>
<path d="M82.3447 74.8034L186.874 74.042L189.79 145.448L81.5515 144.442L82.3447 74.8034Z" fill="#E8505B"/>
<path d="M82.3445 74.808L131.815 34.5807C132.832 33.7549 134.102 33.3067 135.409 33.3116C136.717 33.3164 137.983 33.7741 138.994 34.6074L186.856 74.0421" fill="#E8505B"/>
<g opacity="0.3">
<path opacity="0.3" d="M82.3445 74.808L131.815 34.5807C132.832 33.7549 134.102 33.3067 135.409 33.3116C136.717 33.3164 137.983 33.7741 138.994 34.6074L186.856 74.0421" fill="black"/>
</g>
<path d="M81.5421 144.442C81.4136 144.317 89.7805 135.136 100.23 123.937C110.68 112.738 119.264 103.756 119.393 103.899C119.521 104.041 111.159 113.201 100.705 124.382C90.2503 135.563 81.6839 144.562 81.5421 144.442Z" fill="#263238"/>
<path d="M189.79 145.449C189.657 145.569 181.507 136.574 171.589 125.362C161.671 114.15 153.739 104.959 153.863 104.839C153.987 104.718 162.141 113.713 172.063 124.93C181.986 136.147 189.923 145.329 189.79 145.449Z" fill="#263238"/>
<g opacity="0.5">
<path opacity="0.5" d="M186.874 74.042L134.385 116.175L82.3445 74.8034" fill="black"/>
</g>
<path d="M87.6093 78.7043L87.4454 45.9044L178.977 44.8135L180.009 79.3322L134.381 115.623L87.6093 78.7043Z" fill="#FAFAFA"/>
<path d="M87.6093 78.7046C87.6093 78.7046 87.9063 78.9272 88.4691 79.3681L90.9508 81.3095L100.395 88.7325L134.439 115.548H134.323L179.925 79.2612L179.881 79.3547C179.681 72.7689 179.477 65.8625 179.265 58.8358C179.123 54.1024 178.986 49.4269 178.848 44.8404L178.963 44.9518L87.4321 45.9982L87.5074 45.9225C87.5429 56.2443 87.5695 64.442 87.5916 70.0616C87.5916 72.8713 87.5916 75.0354 87.5916 76.5004V78.1613C87.5916 78.5354 87.5916 78.7269 87.5916 78.7269C87.5916 78.7269 87.5916 78.5398 87.5916 78.1703C87.5916 77.8007 87.5916 77.244 87.5916 76.5182C87.5916 75.0532 87.565 72.8936 87.5429 70.0883C87.5074 64.4598 87.4542 56.2576 87.3878 45.9269V45.8512H87.4631L178.99 44.7202H179.105V44.836C179.243 49.418 179.38 54.0935 179.522 58.8269C179.73 65.858 179.938 72.7645 180.133 79.3503V79.4082L180.089 79.4438L134.443 115.721L134.385 115.766L134.328 115.721L100.306 88.7904C96.2422 85.5709 93.0647 83.0551 90.9021 81.3363L88.4425 79.3814C87.8885 78.9361 87.6093 78.7046 87.6093 78.7046Z" fill="#263238"/>
<path d="M164.512 61.3292C164.512 61.396 150.512 61.5341 133.251 61.6365C115.989 61.7389 101.985 61.779 101.985 61.7122C101.985 61.6454 115.981 61.5118 133.246 61.4049C150.512 61.2981 164.512 61.2669 164.512 61.3292Z" fill="#263238"/>
<path d="M164.512 70.5958C164.512 70.6626 150.512 70.8007 133.251 70.9031C115.989 71.0055 101.985 71.0411 101.985 70.9788C101.985 70.9164 115.981 70.7784 133.246 70.6715C150.512 70.5647 164.512 70.5335 164.512 70.5958Z" fill="#263238"/>
<path d="M164.512 81.2779C164.512 81.3403 150.512 81.4783 133.251 81.5852C115.989 81.692 101.985 81.7232 101.985 81.6564C101.985 81.5896 115.981 81.456 133.246 81.3536C150.512 81.2512 164.512 81.2111 164.512 81.2779Z" fill="#263238"/>
<path d="M164.512 91.9566C164.512 92.0189 151.155 92.1525 134.687 92.2549C118.219 92.3573 104.858 92.384 104.858 92.3217C104.858 92.2593 118.21 92.1213 134.687 92.0233C151.164 91.9254 164.512 91.8942 164.512 91.9566Z" fill="#263238"/>
<path d="M152.803 101.329C152.682 101.35 152.558 101.359 152.435 101.356L151.385 101.383L147.521 101.45L134.762 101.632C129.776 101.717 125.265 101.743 121.999 101.748H118.13H117.08C116.957 101.757 116.834 101.757 116.712 101.748C116.833 101.728 116.956 101.719 117.08 101.721L118.13 101.694L121.999 101.628L134.757 101.445C139.739 101.361 144.25 101.334 147.516 101.329H151.385H152.435C152.558 101.319 152.681 101.319 152.803 101.329Z" fill="#263238"/>
<path d="M141.02 110.342C141.02 110.405 138.037 110.458 134.372 110.458C130.707 110.458 127.725 110.405 127.725 110.342C127.725 110.28 130.707 110.227 134.372 110.227C138.037 110.227 141.02 110.276 141.02 110.342Z" fill="#263238"/>
<path d="M171.828 103.066C177.935 103.066 182.885 98.092 182.885 91.9561C182.885 85.8203 177.935 80.8462 171.828 80.8462C165.721 80.8462 160.771 85.8203 160.771 91.9561C160.771 98.092 165.721 103.066 171.828 103.066Z" fill="#263238"/>
<path d="M168.952 103.066C175.059 103.066 180.009 98.092 180.009 91.9561C180.009 85.8203 175.059 80.8462 168.952 80.8462C162.846 80.8462 157.895 85.8203 157.895 91.9561C157.895 98.092 162.846 103.066 168.952 103.066Z" fill="#455A64"/>
<path d="M170.357 86.7866V96.0219H168.651V88.2204H166.706V86.7866H170.357Z" fill="#EBEBEB"/>
<path d="M88.3275 30.9205H98.4361L97.0534 29.3397V25.5592C97.0522 24.5774 96.6632 23.6362 95.9719 22.9424C95.2805 22.2486 94.3434 21.8589 93.3662 21.8589C92.3895 21.8589 91.4528 22.2487 90.7622 22.9427C90.0715 23.6366 89.6835 24.5778 89.6835 25.5592V29.1572L88.3275 30.9205Z" fill="#E8505B"/>
<path d="M91.9699 30.4219C91.9811 30.6432 92.0388 30.8595 92.1393 31.0567C92.2398 31.2539 92.3807 31.4274 92.5528 31.5659C92.7249 31.7044 92.9242 31.8046 93.1377 31.86C93.3511 31.9154 93.5739 31.9247 93.7912 31.8873C94.0085 31.85 94.2154 31.7667 94.3984 31.6431C94.5813 31.5195 94.7361 31.3583 94.8525 31.1702C94.969 30.982 95.0444 30.7713 95.0738 30.5517C95.1033 30.3322 95.086 30.1089 95.0233 29.8965" fill="#E8505B"/>
<path d="M93.9465 20.3179H92.9539V22.4374H93.9465V20.3179Z" fill="#E8505B"/>
<path d="M108.133 23.9695C108.106 23.8817 108.084 23.7925 108.066 23.7023C108.022 23.5109 107.964 23.257 107.889 22.9186C107.796 22.4927 107.676 22.0732 107.53 21.6629C107.441 21.4225 107.379 21.1508 107.255 20.8792C107.131 20.6076 107.011 20.3181 106.883 20.0153C106.208 18.5575 105.311 17.2144 104.224 16.0345C102.662 14.3521 100.728 13.0618 98.5793 12.2675C96.4302 11.4732 94.1255 11.1971 91.8508 11.4614C91.179 11.5324 90.5128 11.6484 89.8565 11.8087C89.5197 11.8799 89.1962 12.0091 88.8638 12.1115C88.5256 12.2058 88.1952 12.3264 87.8756 12.4722C86.5162 13.0235 85.2512 13.7853 84.1264 14.7298C81.6312 16.7919 79.8731 19.6152 79.1186 22.7717C78.7158 24.4638 78.6182 26.2148 78.8306 27.9415C79.0135 29.7256 79.5276 31.4595 80.3462 33.0534L80.6032 33.5343L80.6387 33.6011V33.6679C79.8188 36.3396 79.0167 39.0113 78.2412 41.5628L78.0329 41.3714L84.3613 38.054L84.441 38.0139L84.5119 38.0673C86.456 39.5721 88.7391 40.5723 91.1594 40.9795C93.2304 41.3054 95.3466 41.1857 97.368 40.6284C99.3895 40.0711 101.27 39.0889 102.886 37.7467C104.208 36.6387 105.335 35.3139 106.218 33.8282C106.925 32.5872 107.468 31.2596 107.836 29.8785C108.087 28.8328 108.235 27.765 108.279 26.6902C108.279 26.2449 108.279 25.862 108.279 25.5191C108.279 25.1762 108.226 24.9046 108.204 24.6686C108.181 24.4326 108.173 24.2768 108.164 24.1476C108.155 24.0185 108.164 23.9695 108.164 23.9695C108.182 24.0256 108.193 24.0841 108.195 24.1432C108.212 24.2738 108.235 24.4474 108.261 24.6642C108.288 24.9002 108.323 25.1807 108.363 25.5147C108.403 25.8486 108.363 26.2538 108.363 26.6947C108.338 27.78 108.205 28.8601 107.964 29.9186C107.608 31.3186 107.072 32.6658 106.369 33.9261C105.487 35.4441 104.354 36.7995 103.019 37.9337C101.386 39.3094 99.48 40.3189 97.428 40.8949C95.376 41.4708 93.2252 41.5999 91.1195 41.2734C88.6337 40.8655 86.2881 39.8416 84.2948 38.2944H84.4455L78.1215 41.6207L77.8024 41.7899L77.9088 41.4292L80.2975 33.5343V33.6634L80.0315 33.1691C79.1949 31.5405 78.6688 29.769 78.4805 27.9459C78.2795 26.1951 78.3875 24.4224 78.7996 22.7093C79.5748 19.4909 81.3714 16.6134 83.9181 14.5116C85.0685 13.5502 86.3601 12.7736 87.7471 12.2095C88.0741 12.0621 88.4119 11.9401 88.7575 11.8443C89.0943 11.7464 89.4266 11.6172 89.7679 11.546C90.4338 11.3813 91.1106 11.2653 91.7931 11.1986C93.0896 11.055 94.3991 11.082 95.6886 11.2788C96.8842 11.4771 98.0521 11.8179 99.1674 12.2941C101.118 13.1209 102.873 14.3532 104.317 15.9098C105.412 17.1096 106.31 18.4776 106.976 19.9619C107.109 20.2736 107.229 20.5631 107.344 20.8525C107.459 21.1419 107.521 21.4046 107.605 21.6496C107.746 22.0625 107.857 22.4851 107.938 22.9142L108.084 23.7112C108.111 23.7949 108.127 23.8817 108.133 23.9695Z" fill="#263238"/>
<path d="M230.397 129.712C231.842 134.632 230.743 140.96 228.992 145.778C227.21 150.634 223.935 154.794 219.642 157.654C219.163 157.97 218.547 158.277 218.037 158.006C217.849 157.862 217.694 157.68 217.582 157.471C217.471 157.262 217.405 157.031 217.39 156.794C216.352 151.474 217.058 145.959 219.403 141.076C221.748 136.193 225.606 132.205 230.397 129.712Z" fill="#E8505B"/>
<g opacity="0.2">
<path opacity="0.2" d="M230.397 129.712C231.842 134.632 230.743 140.96 228.992 145.778C227.21 150.634 223.935 154.794 219.642 157.654C219.163 157.97 218.547 158.277 218.037 158.006C217.849 157.862 217.694 157.68 217.582 157.471C217.471 157.262 217.405 157.031 217.39 156.794C216.352 151.474 217.058 145.959 219.403 141.076C221.748 136.193 225.606 132.205 230.397 129.712Z" fill="black"/>
</g>
<path d="M208.625 106.357C211.678 106.272 213.69 109.678 213.996 112.733C214.301 115.788 213.623 118.967 214.519 121.884C215.649 125.611 219.114 128.283 220.165 132.036C221.405 136.458 218.99 141.044 218.875 145.64C218.817 147.866 219.318 150.133 218.897 152.319C218.546 154.189 217.561 155.88 216.109 157.102C214.657 158.324 212.829 159.002 210.935 159.021C209.041 159.04 207.199 158.398 205.723 157.205C204.247 156.012 203.229 154.342 202.841 152.479C202.128 149.042 203.634 145.386 202.73 141.988C202.061 139.482 200.125 137.349 199.965 134.757C199.779 131.671 202.154 129.004 202.597 125.945C203.041 122.886 201.498 119.898 201.268 116.812C200.86 111.281 203.138 106.94 208.625 106.348" fill="#E8505B"/>
<path d="M215.312 169.343C215.353 169.244 215.383 169.141 215.401 169.036C215.454 168.8 215.52 168.506 215.605 168.145C215.769 167.375 216.026 166.257 216.358 164.881C218.09 157.713 220.559 150.745 223.728 144.091C224.335 142.813 224.84 141.788 225.199 141.08L225.602 140.266C225.654 140.172 225.696 140.074 225.726 139.972C225.657 140.051 225.599 140.139 225.554 140.234L225.11 141.027C224.72 141.717 224.184 142.732 223.555 144.002C221.915 147.31 220.474 150.713 219.238 154.194C218.009 157.677 216.983 161.229 216.167 164.832C215.857 166.217 215.636 167.344 215.503 168.123C215.441 168.488 215.392 168.786 215.352 169.013C215.325 169.121 215.311 169.232 215.312 169.343Z" fill="#263238"/>
<path d="M208.753 121.443C208.754 121.607 208.767 121.771 208.793 121.933C208.837 122.276 208.895 122.743 208.965 123.331C209.129 124.573 209.36 126.323 209.639 128.474C210.215 132.816 211.004 138.809 211.833 145.439C212.661 152.07 213.375 158.077 213.885 162.427C214.142 164.578 214.35 166.332 214.496 167.575C214.571 168.162 214.634 168.63 214.678 168.973C214.69 169.137 214.717 169.299 214.758 169.458C214.761 169.295 214.754 169.131 214.735 168.968C214.704 168.621 214.66 168.154 214.611 167.561C214.483 166.315 214.306 164.56 214.088 162.4C213.645 158.046 212.945 152.034 212.116 145.404C211.288 138.773 210.468 132.78 209.843 128.443C209.524 126.301 209.262 124.555 209.076 123.318C208.983 122.73 208.908 122.267 208.85 121.924C208.831 121.761 208.798 121.6 208.753 121.443Z" fill="#263238"/>
<path d="M225.957 163.327H202.797V166.043H225.957V163.327Z" fill="#263238"/>
<path d="M204.942 166.043L207.663 182.528H222.026L223.909 166.043H204.942Z" fill="#263238"/>
<path d="M223.985 165.932C223.985 165.999 219.708 166.101 214.43 166.168C209.152 166.235 204.875 166.235 204.871 166.168C204.866 166.101 209.147 165.999 214.425 165.932C219.704 165.865 223.985 165.869 223.985 165.932Z" fill="#455A64"/>
<path d="M223.196 174.183H223.063H222.682C222.188 174.201 221.693 174.181 221.202 174.125C220.412 174.047 219.657 173.761 219.012 173.297C218.609 173.002 218.282 172.614 218.059 172.166C217.803 171.652 217.753 171.058 217.922 170.509C218.019 170.202 218.212 169.933 218.472 169.744C218.732 169.555 219.046 169.455 219.367 169.458C219.708 169.486 220.026 169.646 220.253 169.904C220.479 170.172 220.631 170.494 220.696 170.839C220.98 172.246 219.996 173.813 218.48 174.303C216.965 174.793 215.126 173.947 214.368 172.411C214.175 172.022 214.062 171.598 214.036 171.164C214.003 170.711 214.122 170.26 214.372 169.881C214.503 169.689 214.674 169.528 214.873 169.408C215.072 169.288 215.294 169.212 215.525 169.187C215.762 169.173 215.998 169.222 216.211 169.328C216.424 169.435 216.606 169.594 216.739 169.792C217.008 170.173 217.148 170.63 217.138 171.097C217.127 171.546 217.014 171.986 216.805 172.384C216.396 173.155 215.749 173.772 214.962 174.143C214.215 174.496 213.415 174.723 212.595 174.815C211.809 174.929 211.006 174.859 210.251 174.61C209.52 174.363 208.895 173.873 208.478 173.221C208.287 172.91 208.167 172.56 208.128 172.196C208.089 171.832 208.131 171.464 208.252 171.119C208.354 170.79 208.543 170.495 208.799 170.265C209.055 170.035 209.369 169.879 209.706 169.815C210.019 169.766 210.339 169.799 210.636 169.909C210.933 170.02 211.197 170.205 211.403 170.447C211.572 170.681 211.676 170.957 211.702 171.245C211.729 171.534 211.677 171.824 211.554 172.085C211.345 172.545 211.006 172.932 210.579 173.199C210.218 173.43 209.831 173.619 209.427 173.76C209.063 173.898 208.722 174.009 208.412 174.103C207.938 174.239 207.457 174.349 206.971 174.432L206.59 174.486C206.546 174.494 206.501 174.494 206.457 174.486L206.586 174.454L206.963 174.379C207.291 174.307 207.778 174.196 208.385 174.005C208.691 173.911 209.028 173.791 209.387 173.648C209.781 173.503 210.157 173.314 210.508 173.083C210.909 172.826 211.225 172.456 211.416 172.019C211.528 171.783 211.574 171.52 211.549 171.26C211.524 170.999 211.429 170.751 211.275 170.54C211.086 170.324 210.847 170.159 210.578 170.061C210.309 169.963 210.019 169.935 209.737 169.979C209.433 170.042 209.151 170.186 208.922 170.396C208.693 170.606 208.524 170.874 208.434 171.173C208.323 171.491 208.285 171.83 208.324 172.165C208.362 172.499 208.475 172.821 208.655 173.105C209.046 173.714 209.63 174.171 210.313 174.401C211.04 174.634 211.809 174.698 212.564 174.588C213.358 174.495 214.132 174.274 214.855 173.933C215.6 173.584 216.211 173.001 216.597 172.273C216.805 171.914 216.911 171.505 216.902 171.09C216.894 170.675 216.771 170.271 216.548 169.921C216.44 169.754 216.289 169.619 216.111 169.529C215.934 169.439 215.736 169.398 215.538 169.409C215.341 169.433 215.151 169.498 214.982 169.601C214.812 169.704 214.666 169.842 214.554 170.006C214.334 170.343 214.231 170.744 214.262 171.146C214.283 171.549 214.387 171.943 214.567 172.304C215.272 173.742 217.005 174.57 218.41 174.085C219.814 173.599 220.745 172.157 220.488 170.865C220.428 170.553 220.291 170.26 220.089 170.015C219.994 169.901 219.877 169.808 219.745 169.74C219.614 169.672 219.47 169.631 219.322 169.619C219.04 169.616 218.764 169.704 218.534 169.87C218.305 170.035 218.134 170.27 218.046 170.54C217.884 171.049 217.926 171.602 218.161 172.081C218.364 172.512 218.668 172.886 219.048 173.172C219.672 173.63 220.403 173.92 221.17 174.014C221.657 174.077 222.147 174.11 222.637 174.112H223.018L223.196 174.183Z" fill="#455A64"/>
</g>
<defs>
<clipPath id="clip0_3_2539">
<rect width="254" height="183" fill="white"/>
</clipPath>
</defs>
</svg>
